PathFileType	4	(x/y/z)	S04_P20_T17.trc
DataRate	CameraRate	NumFrames	NumMarkers	Units	OrigDataRate	OrigDataStartFrame	OrigNumFrames
240	240	8	51	mm	240	139	370
Frame#	Time	Sternum			R.Acromium			L.Acromium			Top.Head			R.ASIS			L.ASIS			R.PSIS			L.PSIS			R.Great.Tro			L.Great.Tro			R.Iliac.Crest			L.Iliac.Crest			V.Sacral			R.Thigh.Upper.Post			R.Thigh.Lower.Ant			R.Thigh.Lower.Post			R.Thigh.Upper.Ant			R.Knee.Lat			R.Knee.Med			R.Shank.Upper.Post			R.Shank.Lower.Ant			R.Shank.Lower.Post			R.Shank.Upper.Ant			R.Ankle.Lat			R.Ankle.Med			R.Heel.Upper			R.Heel.Med			R.Heel.Lat			R.Toe.Lat			R.Toe.Med			R.Toe.Tip			L.Thigh.Upper.Post			L.Thigh.Lower.Ant			L.Thigh.Lower.Post			L.Thigh.Upper.Ant			L.Knee.Lat			L.Knee.Med			L.Shank.Upper.Post			L.Shank.Lower.Ant			L.Shank.Lower.Post			L.Shank.Upper.Ant			L.Ankle.Lat			L.Ankle.Med			L.Heel.Upper			L.Heel.Med			L.Heel.Lat			L.Toe.Lat			L.Toe.Med			L.Toe.Tip			Cervical.Spine			Back			
		X1	Y1	Z1	X2	Y2	Z2	X3	Y3	Z3	X4	Y4	Z4	X5	Y5	Z5	X6	Y6	Z6	X7	Y7	Z7	X8	Y8	Z8	X9	Y9	Z9	X10	Y10	Z10	X11	Y11	Z11	X12	Y12	Z12	X13	Y13	Z13	X14	Y14	Z14	X15	Y15	Z15	X16	Y16	Z16	X17	Y17	Z17	X18	Y18	Z18	X19	Y19	Z19	X20	Y20	Z20	X21	Y21	Z21	X22	Y22	Z22	X23	Y23	Z23	X24	Y24	Z24	X25	Y25	Z25	X26	Y26	Z26	X27	Y27	Z27	X28	Y28	Z28	X29	Y29	Z29	X30	Y30	Z30	X31	Y31	Z31	X32	Y32	Z32	X33	Y33	Z33	X34	Y34	Z34	X35	Y35	Z35	X36	Y36	Z36	X37	Y37	Z37	X38	Y38	Z38	X39	Y39	Z39	X40	Y40	Z40	X41	Y41	Z41	X42	Y42	Z42	X43	Y43	Z43	X44	Y44	Z44	X45	Y45	Z45	X46	Y46	Z46	X47	Y47	Z47	X48	Y48	Z48	X49	Y49	Z49	X50	Y50	Z50	X51	Y51	Z51	

139	0.575	-583.61	1261.7	280.49	-703.3	1488.7	463.07	-723.08	1477.7	113.44	-632.26	1813	270.16	-611.21	988.6	408.63	-633.11	995.4	162.08	NaN	NaN	NaN	-830.93	1012.8	248.26	-683.79	906.83	481.21	-756.82	908.07	104.32	-696.62	1070.4	460.32	-730.61	1077.5	123.32	-851.5	969.8	291.32	-617.18	655.34	466.59	-524.54	598.45	423.77	-592.13	569.05	449.55	-545.47	705.07	448.49	-546.58	513.92	437.09	-584.98	498.76	309.94	-579.28	277.42	442.49	-505.96	211.52	392.96	-569.34	208.5	428.38	-517.59	280.43	416.31	-543.11	97.908	406.13	-529.28	115.82	316.3	-604.23	68.537	350.1	-591.92	40.131	318.4	-596.99	34.651	382.84	-426.42	45.704	427.31	-393.65	58.127	311.33	-333.04	85.23	357.87	-774.14	673.13	110.49	-695.51	575.56	98.229	-765.58	583.93	115.88	-708.31	665.17	91.285	-739.85	490.35	108.77	-718.38	466.45	232.67	-915.41	406.03	123.55	-917.38	295.78	114.05	-959.39	342.49	129.02	-872.39	358.82	108.09	-1033.7	191.46	136.4	-1014.9	195.7	227.06	-1105.6	220.22	188.98	-1114.4	199.76	225.17	-1124.6	197.84	163.7	-1004.2	68.394	115.3	-963.07	57.237	227	-920.26	40.192	175.63	-759.12	1540.6	294.1	-844.95	1281	274.75
140	0.57917	-578.14	1262	280.98	-697.84	1488.8	463.77	-717.89	1478.1	114.17	-627.05	1813.3	271.1	-605.73	989	409.3	-627.51	995.54	162.71	-828.99	1009.8	330.25	-826.03	1013	248.48	-678.42	907.33	481.84	-750.83	907.65	104.88	-691.09	1070.7	460.87	-725.17	1077.5	123.86	-846.01	969.9	291.79	-612.14	655.67	467.25	-519.64	598.57	424.41	-587.29	569.31	450.2	-540.3	705.23	449.11	-542.02	513.84	437.62	-580.43	499	310.52	-576.56	277.53	443.02	-503.99	211.01	393.17	-567.29	208.53	428.81	-514.94	280	416.57	-542.3	97.73	406.35	-528.4	115.66	316.58	-603.86	68.861	350.31	-591.76	40.424	318.53	-596.81	34.834	382.97	-426.04	44.59	427.42	-393.2	56.887	311.35	-332.27	83.267	357.9	-765.33	672.23	110.62	-685.59	575.61	97.776	-755.67	583.14	115.82	-699.45	665.07	91.028	-728.68	490.21	108.33	-706.57	466.07	232.47	-904.74	408.47	123.63	-908.41	298.22	114.04	-949.71	345.57	129.16	-862.49	360.61	108.1	-1026.5	196.07	136.41	-1007	199.75	226.97	-1097.1	227.11	189.4	-1106.5	207.1	225.82	-1117	205.24	164.3	-1000.8	71.685	115.43	-959.27	59.544	226.74	-917.52	40.373	175.08	-753.79	1540.9	294.92	-839.48	1281.2	275.43
141	0.58333	-572.7	1262.4	281.44	-692.36	1489	464.44	-712.68	1478.5	114.88	-621.85	1813.7	272.03	-600.3	989.45	409.96	-621.96	995.72	163.33	-824.38	1010.3	330.48	-820.97	1013.2	248.7	-673.13	907.86	482.46	-744.9	907.27	105.45	-685.62	1071	461.4	-719.79	1077.6	124.39	-840.58	970.04	292.25	-607.21	656	467.89	-514.87	598.68	425.07	-582.58	569.57	450.83	-535.24	705.38	449.76	-537.6	513.78	438.15	-575.98	499.27	311.07	-573.96	277.66	443.53	-502.13	210.55	393.38	-565.33	208.59	429.21	-512.41	279.6	416.83	-541.57	97.594	406.55	-527.59	115.54	316.84	-603.54	69.152	350.5	-591.61	40.692	318.65	-596.65	35.003	383.09	-425.71	43.619	427.55	-392.8	55.778	311.37	-331.59	81.493	357.93	-756.51	671.41	110.78	-675.66	575.76	97.377	-745.74	582.43	115.83	-690.61	665.06	90.803	-717.48	490.2	107.94	-694.76	465.86	232.34	-893.95	410.94	123.75	-899.26	300.71	114.1	-939.86	348.68	129.34	-852.44	362.47	108.16	-1019.1	200.72	136.49	-998.95	203.81	226.95	-1088.4	233.87	189.89	-1098.4	214.26	226.52	-1109.2	212.51	164.95	-996.97	75.171	115.55	-955.02	62.005	226.44	-914.32	40.698	174.46	-748.46	1541.2	295.71	-834.03	1281.5	276.08
142	0.5875	-567.29	1262.7	281.86	-686.86	1489.2	465.08	-707.47	1479	115.56	-616.65	1814.1	272.97	-594.92	989.92	410.61	-616.46	995.92	163.93	-819.59	1010.8	330.73	-815.8	1013.3	248.94	-667.89	908.42	483.06	-739.02	906.94	106.01	-680.23	1071.4	461.9	-714.46	1077.8	124.91	-835.19	970.23	292.69	-602.41	656.33	468.51	-510.24	598.78	425.74	-578.02	569.83	451.43	-530.29	705.5	450.42	-533.3	513.72	438.68	-571.66	499.55	311.6	-571.47	277.81	444.01	-500.37	210.12	393.57	-563.48	208.68	429.59	-509.99	279.23	417.08	-540.91	97.495	406.73	-526.86	115.45	317.09	-603.27	69.413	350.67	-591.48	40.934	318.76	-596.5	35.156	383.2	-425.43	42.782	427.68	-392.44	54.791	311.38	-330.99	79.898	357.95	-747.71	670.69	110.99	-665.74	576.03	97.036	-735.82	581.84	115.9	-681.79	665.14	90.616	-706.26	490.32	107.6	-682.97	465.81	232.28	-883.05	413.44	123.91	-889.92	303.24	114.22	-929.87	351.79	129.57	-842.28	364.38	108.28	-1011.4	205.37	136.65	-990.66	207.85	227.01	-1079.5	240.43	190.47	-1089.9	221.18	227.27	-1101.1	219.59	165.67	-992.68	78.822	115.65	-950.3	64.599	226.11	-910.62	41.189	173.77	-743.11	1541.5	296.47	-828.61	1281.8	276.69
143	0.59167	-561.92	1263.1	282.26	-681.35	1489.4	465.7	-702.24	1479.5	116.2	-611.44	1814.5	273.9	-589.6	990.42	411.24	-611.01	996.16	164.52	-814.65	1011.4	330.99	-810.55	1013.6	249.19	-662.71	909	483.63	-733.19	906.65	106.56	-674.89	1071.8	462.39	-709.18	1077.9	125.44	-829.86	970.47	293.13	-597.73	656.65	469.11	-505.73	598.85	426.41	-573.6	570.07	452	-525.44	705.6	451.09	-529.15	513.66	439.18	-567.46	499.83	312.09	-569.09	277.97	444.46	-498.7	209.73	393.74	-561.73	208.78	429.94	-507.68	278.89	417.31	-540.31	97.431	406.88	-526.19	115.39	317.3	-603.03	69.643	350.83	-591.36	41.15	318.87	-596.37	35.296	383.3	-425.19	42.069	427.81	-392.13	53.915	311.38	-330.47	78.471	357.96	-738.92	670.06	111.25	-655.84	576.41	96.757	-725.9	581.36	116.05	-673	665.32	90.472	-695.05	490.59	107.31	-671.23	465.94	232.31	-872.09	415.96	124.12	-880.41	305.8	114.41	-919.76	354.91	129.87	-832.02	366.35	108.45	-1003.4	210	136.87	-982.16	211.84	227.14	-1070.4	246.76	191.14	-1081.2	227.8	228.07	-1092.8	226.42	166.46	-987.88	82.607	115.72	-945.09	67.298	225.75	-906.39	41.863	173.02	-737.76	1541.9	297.21	-823.22	1282.1	277.28
144	0.59583	-556.58	1263.5	282.64	-675.83	1489.7	466.3	-697	1480.1	116.82	-606.23	1815	274.82	-584.33	990.95	411.85	-605.61	996.45	165.09	-809.6	1011.9	331.25	-805.23	1013.8	249.46	-657.58	909.59	484.19	-727.42	906.44	107.11	-669.62	1072.3	462.85	-703.95	1078.1	125.96	-824.57	970.75	293.55	-593.19	656.95	469.67	-501.36	598.89	427.08	-569.34	570.29	452.54	-520.7	705.66	451.76	-525.14	513.61	439.68	-563.4	500.11	312.54	-566.84	278.14	444.86	-497.14	209.37	393.9	-560.08	208.9	430.24	-505.49	278.58	417.53	-539.78	97.396	407.01	-525.58	115.35	317.49	-602.82	69.846	350.96	-591.26	41.34	318.96	-596.25	35.422	383.39	-424.99	41.468	427.94	-391.86	53.139	311.37	-330.02	77.202	357.95	-730.16	669.53	111.55	-645.97	576.92	96.541	-716	581	116.26	-664.25	665.61	90.372	-683.87	491.01	107.08	-659.57	466.26	232.4	-861.08	418.5	124.4	-870.77	308.38	114.67	-909.55	358.02	130.22	-821.69	368.37	108.68	-995.25	214.57	137.18	-973.45	215.75	227.36	-1061.2	252.8	191.9	-1072.3	234.07	228.92	-1084.2	232.94	167.31	-982.56	86.487	115.77	-939.36	70.071	225.36	-901.59	42.733	172.22	-732.4	1542.3	297.92	-817.87	1282.6	277.84
145	0.6	-551.27	1264	282.98	-670.31	1490	466.87	-691.75	1480.7	117.41	-601	1815.5	275.74	-579.11	991.5	412.45	-600.24	996.77	165.64	-804.46	1012.5	331.53	-799.88	1014.1	249.73	-652.52	910.19	484.72	-721.68	906.29	107.64	-664.39	1072.8	463.29	-698.78	1078.4	126.49	-819.33	971.07	293.97	-588.76	657.24	470.2	-497.13	598.9	427.73	-565.22	570.5	453.03	-516.07	705.69	452.41	-521.28	513.55	440.15	-559.49	500.39	312.94	-564.7	278.32	445.21	-495.67	209.04	394.03	-558.54	209.04	430.5	-503.42	278.28	417.72	-539.31	97.389	407.11	-525.04	115.34	317.64	-602.65	70.023	351.07	-591.17	41.507	319.04	-596.15	35.537	383.46	-424.82	40.969	428.06	-391.63	52.453	311.35	-329.64	76.076	357.94	-721.42	669.12	111.91	-636.12	577.55	96.391	-706.12	580.77	116.56	-655.54	666.01	90.318	-672.73	491.59	106.9	-648.01	466.76	232.57	-850.06	421.04	124.75	-861	310.96	114.99	-899.26	361.09	130.65	-811.3	370.44	108.97	-986.83	219.04	137.56	-964.53	219.56	227.65	-1051.8	258.5	192.74	-1063.2	239.93	229.83	-1075.4	239.11	168.22	-976.67	90.42	115.79	-933.08	72.885	224.93	-896.19	43.806	171.37	-727.04	1542.7	298.6	-812.54	1283.1	278.37
146	0.60417	-546	1264.4	283.3	-664.78	1490.4	467.41	-686.49	1481.4	117.97	-595.76	1816	276.65	-573.93	992.08	413.03	-594.91	997.15	166.18	-799.25	1013	331.82	-794.52	1014.4	250.01	-647.5	910.78	485.22	-715.99	906.21	108.17	-659.22	1073.3	463.72	-693.66	1078.7	127.01	-814.13	971.43	294.37	-584.47	657.52	470.68	-493.03	598.88	428.37	-561.25	570.68	453.47	-511.54	705.68	453.04	-517.56	513.49	440.59	-555.71	500.67	313.31	-562.7	278.5	445.52	-494.3	208.73	394.15	-557.1	209.18	430.72	-501.46	278.01	417.9	-538.89	97.405	407.19	-524.54	115.33	317.76	-602.5	70.178	351.16	-591.1	41.651	319.11	-596.06	35.642	383.53	-424.68	40.56	428.18	-391.43	51.848	311.32	-329.31	75.083	357.91	-712.72	668.82	112.31	-626.32	578.32	96.306	-696.27	580.67	116.92	-646.88	666.52	90.311	-661.65	492.33	106.79	-636.57	467.44	232.81	-839.04	423.57	125.17	-851.12	313.55	115.38	-888.91	364.11	131.15	-800.87	372.54	109.33	-978.19	223.38	138.01	-955.41	223.23	228.02	-1042.2	263.82	193.67	-1053.9	245.36	230.79	-1066.3	244.87	169.2	-970.22	94.363	115.79	-926.26	75.707	224.48	-890.15	45.08	170.47	-721.68	1543.2	299.26	-807.25	1283.6	278.88
